<svg width="135" height="141" viewBox="0 0 135 141" fill="none" xmlns="http://www.w3.org/2000/svg">
<path d="M131.99 138C111.783 138 68.7898 134.351 51.1624 104.351C38.2372 82.3536 19.3471 46.3782 0 46.3782" stroke="#FD5637" stroke-width="5"/>
<path d="M135 102.73C114.793 102.73 92.8662 93 83.4076 69.4865C73.949 45.973 36.5446 3.00002 3.00952 3" stroke="#FD5637" stroke-width="5"/>
<path d="M29.559 60.627L27.3258 61.1473C26.5479 61.3286 26.2557 62.2868 26.7898 62.8554C33.7125 70.2234 37.5268 79.2549 38.2576 79.0686C38.6918 78.9578 39.2309 78.3382 39.6311 77.7791C39.8938 77.4121 40.3574 77.2095 40.8044 77.1472C41.2997 77.0783 41.954 76.8724 42.653 76.3887C43.3662 75.8952 43.574 75.1946 43.5722 74.5884C43.5704 74.0344 43.819 73.4189 44.2199 73.0214C44.522 72.7218 44.8163 72.3131 44.9855 71.7891C45.2391 71.0039 44.6389 70.0763 44.0399 69.4277C43.712 69.0727 43.6396 68.5464 43.7742 68.0756C44.252 66.4052 42.7347 65.5885 43.0649 65.6657C43.4428 65.754 44.8734 63.3647 44.0768 61.8166C43.5643 60.8206 42.1233 60.5275 41.081 60.492C40.6748 60.4781 40.2964 60.2704 40.0783 59.9367C39.761 59.4514 39.2905 58.8622 38.7621 58.5315C38.3578 58.2784 37.7325 58.2852 37.1293 58.391C36.432 58.5134 35.5059 58.0503 34.9086 57.6941C34.1361 57.2334 32.9659 57.0411 32.0919 57.3506C31.1987 57.6669 30.6482 58.8821 30.3822 59.8099C30.269 60.2046 29.9631 60.5329 29.559 60.627Z" fill="#FFB800"/>
<path d="M82.2648 78.3739L84.5672 78.148C85.3626 78.07 85.7881 77.1692 85.3434 76.5385C79.5608 68.3369 77.1041 58.8866 76.3527 58.976C75.9061 59.0291 75.281 59.5731 74.8027 60.075C74.4893 60.4037 73.9981 60.5431 73.5438 60.5472C73.0437 60.5518 72.3675 60.671 71.6068 61.0577C70.8229 61.4563 70.5155 62.1294 70.431 62.7332C70.355 63.2765 70.0222 63.8454 69.5699 64.1825C69.2242 64.4402 68.8692 64.8086 68.6229 65.3094C68.2563 66.055 68.7165 67.0536 69.2155 67.7742C69.4876 68.1671 69.4845 68.6927 69.2825 69.1365C68.5558 70.7336 69.9445 71.744 69.6282 71.6243C69.2668 71.4876 67.5 73.6677 68.0621 75.3047C68.4229 76.3551 69.8009 76.8334 70.8272 77.0055C71.2318 77.0733 71.5805 77.3306 71.7491 77.6919C71.9923 78.213 72.3711 78.8553 72.8447 79.2505C73.2052 79.5515 73.8187 79.6274 74.427 79.6029C75.1407 79.5741 76.002 80.1572 76.5476 80.5889C77.2459 81.1416 78.371 81.4807 79.278 81.2888C80.2111 81.0914 80.9356 79.9547 81.3344 79.0696C81.5024 78.6967 81.8515 78.4144 82.2648 78.3739Z" fill="#FFB800"/>
<ellipse cx="18.0573" cy="21.4201" rx="2.14968" ry="3.01455" fill="#C94837"/>
<ellipse cx="103.185" cy="104.934" rx="2.14968" ry="3.01455" fill="#C94837"/>
<ellipse cx="64.4904" cy="101.69" rx="2.14968" ry="3.01455" fill="#C94837"/>
<ellipse cx="55.8917" cy="70.8793" rx="2.14968" ry="3.01455" fill="#C94837"/>
<ellipse rx="2.03525" ry="3.18539" transform="matrix(0.269647 0.962959 -0.970376 0.241601 22.3567 35.2038)" fill="#C94837"/>
<ellipse rx="2.03525" ry="3.18539" transform="matrix(0.269647 0.962959 -0.970376 0.241601 50.5028 62.486)" fill="#C94837"/>
<ellipse rx="2.11885" ry="3.06245" transform="matrix(0.874592 0.48486 -0.529086 0.848568 38.4646 29.243)" fill="#C94837"/>
<ellipse rx="2.11885" ry="3.06245" transform="matrix(0.874592 0.48486 -0.529086 0.848568 61.5149 84.4639)" fill="#C94837"/>
<ellipse rx="2.11885" ry="3.06245" transform="matrix(0.874592 0.48486 -0.529086 0.848568 89.0308 98.2479)" fill="#C94837"/>
<ellipse rx="2.11885" ry="3.06245" transform="matrix(0.874592 0.48486 -0.529086 0.848568 97.6296 117.707)" fill="#C94837"/>
<ellipse rx="2.11885" ry="3.06245" transform="matrix(0.874592 0.48486 -0.529086 0.848568 61.5149 56.0855)" fill="#C94837"/>
<ellipse rx="2.04987" ry="3.16459" transform="matrix(0.447102 -0.894483 0.913816 0.406129 39.1582 44.7341)" fill="#C94837"/>
<ellipse rx="2.04987" ry="3.16459" transform="matrix(0.447102 -0.894483 0.913816 0.406129 74.7479 88.8215)" fill="#C94837"/>
<ellipse rx="2.04987" ry="3.16459" transform="matrix(0.447102 -0.894483 0.913816 0.406129 119.461 113.957)" fill="#C94837"/>
<ellipse rx="2.04987" ry="3.16459" transform="matrix(0.447102 -0.894483 0.913816 0.406129 80.767 110.713)" fill="#C94837"/>
</svg>
