<svg width="135" height="135" viewBox="0 0 135 135" fill="none" xmlns="http://www.w3.org/2000/svg">
<path d="M62.0638 0L59.3457 3.62416L63.2122 6.52349C33.7772 8.36955 10.6845 29.0318 6.35815 58.1089L10.8385 58.7703C14.8681 31.6888 35.442 13.0311 62.7093 11.0673L59.3457 13.5906L62.0638 17.2148L71.1242 10.4195C71.4055 10.2085 71.6338 9.93489 71.7911 9.62037C71.9483 9.30584 72.0302 8.95903 72.0302 8.60738C72.0302 8.25574 71.9483 7.90892 71.7911 7.5944C71.6338 7.27988 71.4055 7.00629 71.1242 6.7953L62.0638 0Z" fill="#70FF00"/>
<path d="M78.8255 26.728C76.5814 26.7297 74.3726 27.287 72.3964 28.3502C70.4202 29.4134 68.738 30.9494 67.5 32.8211C65.8868 30.3892 63.5337 28.5412 60.7888 27.5503C58.0439 26.5595 55.0529 26.4786 52.2584 27.3194C49.4639 28.1603 47.0142 29.8784 45.2719 32.2195C43.5296 34.5606 42.5871 37.4003 42.5839 40.3186C42.5839 40.5814 42.5839 40.8441 42.6088 41.1092C39.9534 42.0362 37.6522 43.7664 36.0243 46.0599C34.3964 48.3535 33.5224 51.0967 33.5235 53.9092C33.5235 54.172 33.5235 54.4347 33.5484 54.6998C30.8949 55.6284 28.5956 57.3589 26.9689 59.6517C25.3421 61.9445 24.4683 64.6863 24.4683 67.4976C24.4683 70.3089 25.3421 73.0507 26.9689 75.3435C28.5956 77.6363 30.8949 79.3668 33.5484 80.2954C33.5235 80.5649 33.5235 80.8277 33.5235 81.0904C33.5224 83.903 34.3964 86.6462 36.0243 88.9397C37.6522 91.2333 39.9534 92.9635 42.6088 93.8905C42.5839 94.1555 42.5839 94.4183 42.5839 94.681C42.5871 97.5993 43.5296 100.439 45.2719 102.78C47.0142 105.121 49.4639 106.839 52.2584 107.68C55.0529 108.521 58.0439 108.44 60.7888 107.449C63.5337 106.459 65.8868 104.61 67.5 102.179C69.1131 104.61 71.4662 106.459 74.2112 107.449C76.9561 108.44 79.9471 108.521 82.7416 107.68C85.5361 106.839 87.9857 105.121 89.728 102.78C91.4704 100.439 92.4129 97.5993 92.4161 94.681C92.4161 94.4183 92.4161 94.1555 92.3912 93.8905C95.0465 92.9635 97.3477 91.2333 98.9757 88.9397C100.604 86.6462 101.478 83.903 101.476 81.0904C101.476 80.8277 101.476 80.5649 101.452 80.2999C104.105 79.3713 106.404 77.6408 108.031 75.348C109.658 73.0552 110.532 70.3134 110.532 67.5021C110.532 64.6908 109.658 61.949 108.031 59.6562C106.404 57.3634 104.105 55.6329 101.452 54.7043C101.476 54.4347 101.476 54.172 101.476 53.9092C101.478 51.0967 100.604 48.3535 98.9757 46.0599C97.3477 43.7664 95.0465 42.0362 92.3912 41.1092C92.4161 40.8441 92.4161 40.5814 92.4161 40.3186C92.4125 36.7153 90.9795 33.2605 88.4315 30.7126C85.8836 28.1646 82.4288 26.7316 78.8255 26.728ZM65.2349 60.8269C57.4565 61.5925 51.6443 66.2314 51.6443 72.03H56.1745C56.1745 68.8113 60.1361 66.0298 65.2349 65.3797V94.681C65.2405 95.958 64.9762 97.2217 64.4591 98.3894C63.9421 99.557 63.1841 100.602 62.2349 101.456C61.2856 102.31 60.1665 102.954 58.951 103.346C57.7354 103.737 56.4509 103.867 55.1816 103.727C53.9124 103.587 52.687 103.18 51.5859 102.534C50.4848 101.887 49.5329 101.015 48.7925 99.9742C48.0521 98.9338 47.54 97.7486 47.2898 96.4964C47.0396 95.2442 47.0569 93.9532 47.3406 92.7082C47.4067 92.4096 47.4117 92.1008 47.3552 91.8002C47.2988 91.4997 47.1821 91.2137 47.0121 90.9595C46.9668 90.8915 46.8921 90.853 46.84 90.7896C48.3994 88.5575 49.2811 85.9226 49.3792 83.2015C49.4127 82.0889 49.2166 80.9812 48.8032 79.9477C48.3897 78.9142 47.7676 77.9769 46.9759 77.1945L43.8342 80.4562C44.1834 80.8192 44.4539 81.2504 44.6285 81.7228C44.8031 82.1952 44.8782 82.6987 44.849 83.2015C44.7231 85.297 43.9498 87.3018 42.636 88.939C40.9425 87.9966 39.6021 86.5283 38.8174 84.7563C38.0327 82.9842 37.8465 81.0048 38.287 79.1175C38.3528 78.8196 38.3577 78.5115 38.3015 78.2116C38.2453 77.9118 38.1291 77.6264 37.9599 77.3725C37.7906 77.1187 37.5719 76.9016 37.3167 76.7344C37.0615 76.5672 36.7752 76.4533 36.4749 76.3994C34.3818 76.0322 32.4852 74.9388 31.1186 73.3115C29.7519 71.6842 29.0027 69.6272 29.0027 67.5021C29.0027 65.3771 29.7519 63.32 31.1186 61.6927C32.4852 60.0654 34.3818 58.972 36.4749 58.6048C36.5021 58.6048 36.5247 58.5799 36.5542 58.5731C39.8861 59.2322 42.5839 64.0592 42.5839 69.7649H47.1141C47.1141 61.9821 43.3019 55.676 38.0899 54.2241C38.0899 54.1244 38.0537 54.0089 38.0537 53.9092C38.0538 51.7838 38.8033 49.7265 40.1705 48.0991C41.5377 46.4718 43.4349 45.3786 45.5285 45.0119C45.5557 45.0119 45.5783 44.987 45.6078 44.9802C48.9465 45.6416 51.6443 50.4685 51.6443 56.1743H56.1745C56.1745 48.3915 52.3623 42.0854 47.1503 40.6335C47.1503 40.5338 47.1141 40.4183 47.1141 40.3186C47.1141 37.9157 48.0686 35.6111 49.7678 33.912C51.467 32.2128 53.7715 31.2582 56.1745 31.2582C58.5774 31.2582 60.882 32.2128 62.5811 33.912C64.2803 35.6111 65.2349 37.9157 65.2349 40.3186V60.8269ZM96.9463 53.9092C96.9463 54.0089 96.9123 54.1222 96.91 54.2241C91.698 55.676 87.8859 61.9821 87.8859 69.7649H92.4161C92.4161 64.0592 95.1138 59.2322 98.4503 58.5708C98.4798 58.5708 98.5024 58.598 98.5296 58.6025C100.623 58.9698 102.519 60.0632 103.886 61.6905C105.253 63.3178 106.002 65.3748 106.002 67.4998C106.002 69.6249 105.253 71.6819 103.886 73.3092C102.519 74.9365 100.623 76.0299 98.5296 76.3972C98.2293 76.451 97.943 76.5649 97.6878 76.7322C97.4326 76.8994 97.2138 77.1164 97.0446 77.3703C96.8754 77.6241 96.7592 77.9095 96.703 78.2094C96.6468 78.5092 96.6517 78.8174 96.7175 79.1153C97.1579 81.0026 96.9717 82.982 96.1871 84.754C95.4024 86.5261 94.062 87.9944 92.3685 88.9368C91.0535 87.3007 90.2786 85.2967 90.151 83.2015C90.1218 82.6987 90.1968 82.1952 90.3714 81.7228C90.5461 81.2504 90.8165 80.8192 91.1657 80.4562L88.0241 77.1945C87.2323 77.9769 86.6103 78.9142 86.1968 79.9477C85.7833 80.9812 85.5872 82.0889 85.6208 83.2015C85.7169 85.9219 86.5962 88.5568 88.1532 90.7896C88.1011 90.853 88.0263 90.8915 87.981 90.9595C87.8111 91.2137 87.6944 91.4997 87.6379 91.8002C87.5815 92.1008 87.5865 92.4096 87.6526 92.7082C87.9409 93.9547 87.9619 95.2481 87.7143 96.5034C87.4667 97.7586 86.9561 98.9472 86.216 99.9908C85.4759 101.034 84.5232 101.91 83.4205 102.558C82.3178 103.207 81.0902 103.615 79.8185 103.756C78.5468 103.896 77.2598 103.765 76.0422 103.372C74.8246 102.979 73.7041 102.333 72.7543 101.476C71.8046 100.618 71.0472 99.5696 70.5319 98.3985C70.0167 97.2274 69.7554 95.9604 69.7651 94.681V85.3126C74.9952 83.881 78.8255 77.5659 78.8255 69.7649H74.2953C74.2953 74.5805 72.3699 78.771 69.7651 80.3701V40.3186C69.7651 37.9157 70.7197 35.6111 72.4188 33.912C74.118 32.2128 76.4225 31.2582 78.8255 31.2582C81.2284 31.2582 83.533 32.2128 85.2321 33.912C86.9313 35.6111 87.8859 37.9157 87.8859 40.3186C87.8859 40.4183 87.8519 40.5316 87.8496 40.6335C82.6376 42.0854 78.8255 48.3915 78.8255 56.1743H83.3557C83.3557 50.4685 86.0534 45.6416 89.3899 44.9802C89.4194 44.9802 89.442 45.0074 89.4692 45.0119C91.5632 45.3781 93.4609 46.4711 94.8286 48.0985C96.1962 49.7259 96.9461 51.7835 96.9463 53.9092Z" fill="#70FF00"/>
<path d="M72.2907 123.932L75.6544 121.409L72.9362 117.785L63.8758 124.58C63.5945 124.791 63.3662 125.065 63.2089 125.379C63.0517 125.694 62.9698 126.041 62.9698 126.392C62.9698 126.744 63.0517 127.091 63.2089 127.405C63.3662 127.72 63.5945 127.993 63.8758 128.204L72.9362 135L75.6544 131.376L71.7878 128.476C101.223 126.63 124.316 105.968 128.642 76.8909L124.161 76.2295C120.132 103.311 99.558 121.969 72.2907 123.932ZM128.477 63.2119C126.63 33.777 105.968 10.6843 76.8934 6.35791L76.2274 10.8383C103.311 14.8588 121.969 35.435 123.933 62.7091L121.409 59.3454L117.785 62.0635L124.581 71.1239C124.792 71.4053 125.065 71.6336 125.38 71.7908C125.694 71.9481 126.041 72.03 126.393 72.03C126.744 72.03 127.091 71.9481 127.406 71.7908C127.72 71.6336 127.994 71.4053 128.205 71.1239L135 62.0635L131.376 59.3454L128.477 63.2119ZM11.0673 72.2905L13.5906 75.6541L17.2148 72.936L10.4195 63.8756C10.1993 63.6081 9.92266 63.3926 9.60935 63.2446C9.29604 63.0967 8.95386 63.02 8.60738 63.02C8.2609 63.02 7.91872 63.0967 7.60542 63.2446C7.29211 63.3926 7.01545 63.6081 6.7953 63.8756L0 72.936L3.62416 75.6541L6.52349 71.7876C8.36955 101.223 29.0318 124.315 58.1066 128.642L58.7726 124.161C31.6888 120.132 13.0311 99.5555 11.0673 72.2905Z" fill="#70FF00"/>
</svg>
