<svg width="135" height="82" viewBox="0 0 135 82" fill="none" xmlns="http://www.w3.org/2000/svg">
<path d="M135 45.8367C135 28.4555 117.577 14.3227 96.1453 14.3227C88.4461 14.3227 81.1055 16.1367 74.7773 19.5328C68.9555 8.07891 55.0547 0 38.8547 0C17.4445 0 0 14.1117 0 31.4719C0 39.8461 4.15547 47.9039 11.4539 53.7891L10.9898 64.7156C10.9688 65.4539 11.3273 66.15 11.9602 66.5508C12.2766 66.7406 12.6562 66.8672 13.0359 66.8672C13.3734 66.8672 13.7109 66.7828 14.0062 66.6352L24.7008 60.8133C29.1938 62.2687 33.9398 62.9859 38.8547 62.9859C46.7438 62.9859 54.0844 61.0664 60.2016 57.7758C66.1289 69.5461 80.2406 77.3297 96.1453 77.3297C101.039 77.3297 105.806 76.5914 110.299 75.157L120.973 80.9578C121.289 81.1055 121.627 81.1898 121.943 81.1898C122.323 81.1898 122.702 81.0844 123.04 80.8945C123.652 80.4937 124.031 79.7977 123.989 79.0594L123.546 68.1328C130.845 62.2688 135 54.1688 135 45.8367ZM38.8547 58.8727C34.0875 58.8727 29.468 58.1344 25.1648 56.6367C24.6164 56.468 24.0258 56.5102 23.5195 56.7844L15.2297 61.2773L15.5883 52.9031C15.6094 52.2492 15.3141 51.5953 14.7656 51.1945C7.88906 45.9844 4.09219 38.9813 4.09219 31.4719C4.09219 16.3688 19.6805 4.07109 38.8547 4.07109C58.0289 4.07109 73.5961 16.3688 73.5961 31.4719C73.5961 46.5961 58.0289 58.8727 38.8547 58.8727ZM120.234 65.5383C119.707 65.9391 119.391 66.593 119.412 67.2469L119.77 75.6422L111.459 71.1281C110.974 70.8539 110.362 70.8117 109.835 71.0016C105.511 72.4781 100.913 73.2375 96.1453 73.2375C81.6328 73.2375 68.8711 66.2344 63.7453 55.6664C72.2672 49.8656 77.6883 41.1961 77.6883 31.493C77.6883 28.6664 77.2031 25.9453 76.3383 23.3508C82.1602 20.1234 88.9523 18.4148 96.1453 18.4148C115.32 18.4148 130.908 30.7125 130.908 45.8367C130.908 53.3039 127.111 60.307 120.234 65.5383Z" fill="white"/>
<path d="M130.908 45.8369C130.908 53.3252 127.111 60.3283 120.234 65.5385C119.707 65.9393 119.391 66.5932 119.412 67.2471L119.77 75.6424L111.459 71.1283C110.974 70.8541 110.363 70.8119 109.835 71.0017C105.511 72.4783 100.913 73.2377 96.1454 73.2377C81.6329 73.2377 68.8711 66.2346 63.7454 55.6666C72.2672 49.8658 77.6883 41.1963 77.6883 31.4932C77.6883 28.6666 77.2032 25.9455 76.3383 23.351C82.1602 20.1236 88.9524 18.415 96.1454 18.415C115.32 18.415 130.908 30.7127 130.908 45.8369Z" fill="#F8BE32"/>
<path d="M38.8547 4.07129C19.6804 4.07129 4.09216 16.3689 4.09216 31.4721C4.09216 38.9814 7.88904 45.9846 14.7656 51.1947C15.314 51.5955 15.6094 52.2494 15.5883 52.9033L15.2297 61.2775L23.5195 56.7846C24.0258 56.5104 24.6164 56.4682 25.1648 56.6369C29.4679 58.1346 34.0875 58.8729 38.8547 58.8729C58.0289 58.8729 73.5961 46.5963 73.5961 31.4721C73.5961 16.3689 58.0289 4.07129 38.8547 4.07129ZM23.2031 36.5135C21.5156 36.5135 20.1234 35.1213 20.1234 33.4338C20.1234 31.7463 21.5156 30.3752 23.2031 30.3752C24.8906 30.3752 26.2617 31.7463 26.2617 33.4338C26.2617 35.1213 24.8906 36.5135 23.2031 36.5135ZM38.8547 36.5135C37.1672 36.5135 35.775 35.1213 35.775 33.4338C35.775 31.7463 37.1672 30.3752 38.8547 30.3752C40.5422 30.3752 41.9133 31.7463 41.9133 33.4338C41.9133 35.1213 40.5422 36.5135 38.8547 36.5135ZM54.5062 36.5135C52.7976 36.5135 51.4265 35.1213 51.4265 33.4338C51.4265 31.7463 52.7976 30.3752 54.5062 30.3752C56.1937 30.3752 57.5648 31.7463 57.5648 33.4338C57.5648 35.1213 56.1937 36.5135 54.5062 36.5135Z" fill="#FED947"/>
<path d="M26.2617 33.4126C26.2617 35.1001 24.8906 36.4923 23.2031 36.4923C21.5156 36.4923 20.1234 35.1001 20.1234 33.4126C20.1234 31.7251 21.5156 30.354 23.2031 30.354C24.8906 30.3751 26.2617 31.7462 26.2617 33.4126ZM41.9133 33.4126C41.9133 35.1001 40.5422 36.4923 38.8547 36.4923C37.1672 36.4923 35.775 35.1001 35.775 33.4126C35.775 31.7251 37.1672 30.354 38.8547 30.354C40.5422 30.3751 41.9133 31.7462 41.9133 33.4126ZM57.5648 33.4126C57.5648 35.1001 56.1937 36.4923 54.5062 36.4923C52.7976 36.4923 51.4265 35.1001 51.4265 33.4126C51.4265 31.7251 52.7976 30.354 54.5062 30.354C56.1937 30.3751 57.5648 31.7462 57.5648 33.4126Z" fill="white"/>
<path d="M84.1383 47.0586C84.1383 48.7461 82.7672 50.1383 81.0797 50.1383C79.3922 50.1383 78 48.7461 78 47.0586C78 45.3711 79.3922 44 81.0797 44C82.7672 44.0211 84.1383 45.3922 84.1383 47.0586ZM99.7898 47.0586C99.7898 48.7461 98.4188 50.1383 96.7313 50.1383C95.0438 50.1383 93.6516 48.7461 93.6516 47.0586C93.6516 45.3711 95.0438 44 96.7313 44C98.4188 44.0211 99.7898 45.3922 99.7898 47.0586ZM115.441 47.0586C115.441 48.7461 114.07 50.1383 112.383 50.1383C110.674 50.1383 109.303 48.7461 109.303 47.0586C109.303 45.3711 110.674 44 112.383 44C114.07 44.0211 115.441 45.3922 115.441 47.0586Z" fill="white"/>
</svg>
