<svg width="133" height="135" viewBox="0 0 133 135" fill="none" xmlns="http://www.w3.org/2000/svg">
<path d="M23.5112 21.107L35.755 33.2823L47.9988 45.4576" stroke="#FF0000" stroke-width="10"/>
<path d="M98.5998 99.9043L103.193 104.191L108.918 109.736" stroke="#FF0000" stroke-width="10"/>
<path fill-rule="evenodd" clip-rule="evenodd" d="M63.9068 27.3925C65.0917 27.3908 66.2405 27.8071 67.1573 28.5705C68.0742 29.3339 68.7024 30.3971 68.9348 31.5789C69.1673 32.7607 68.9895 33.9879 68.432 35.0513C67.8744 36.1147 66.9714 36.9485 65.8771 37.4105C64.7827 37.8726 63.5647 37.9343 62.4306 37.5851C61.2966 37.2359 60.3167 36.4975 59.658 35.4957C58.9993 34.4939 58.7026 33.2907 58.8184 32.0913C58.9343 30.8918 59.4555 29.7704 60.2933 28.9181C60.767 28.4341 61.3301 28.0501 61.9503 27.7883C62.5704 27.5265 63.2353 27.392 63.9068 27.3925ZM63.9068 29.3758C64.5344 29.3745 65.1483 29.5626 65.6707 29.9164C66.1931 30.2702 66.6005 30.7737 66.8413 31.3633C67.0821 31.9528 67.1454 32.6017 67.0233 33.2279C66.9012 33.854 66.5991 34.4293 66.1553 34.8807C65.7115 35.332 65.146 35.6393 64.5304 35.7635C63.9148 35.8877 63.2768 35.8233 62.6972 35.5783C62.1176 35.3334 61.6226 34.919 61.2747 34.3877C60.9269 33.8563 60.7419 33.2319 60.7433 32.5935C60.7451 31.7407 61.079 30.9233 61.6718 30.3203C62.2647 29.7173 63.0683 29.3777 63.9068 29.3758ZM71.6791 19.2858C72.6253 19.2865 73.542 19.6209 74.273 20.2318C75.004 20.8428 75.5042 21.6927 75.6884 22.6366C75.8726 23.5806 75.7294 24.5603 75.2831 25.409C74.8369 26.2576 74.1152 26.9227 73.2411 27.2909C72.3669 27.6591 71.3943 27.7077 70.4888 27.4284C69.5834 27.1491 68.8011 26.5592 68.2752 25.7592C67.7494 24.9591 67.5124 23.9984 67.6047 23.0406C67.697 22.0828 68.1129 21.1872 68.7815 20.5063C69.1619 20.119 69.6136 19.8118 70.1108 19.6024C70.608 19.3929 71.141 19.2853 71.6791 19.2858ZM71.6791 21.2691C72.1045 21.2677 72.5206 21.3949 72.8749 21.6344C73.2291 21.8739 73.5054 22.215 73.6688 22.6144C73.8322 23.0138 73.8753 23.4536 73.7926 23.878C73.71 24.3024 73.5053 24.6923 73.2046 24.9982C72.9038 25.3041 72.5205 25.5123 72.1033 25.5963C71.686 25.6804 71.2537 25.6366 70.8609 25.4704C70.4682 25.3042 70.1329 25.0231 69.8974 24.6628C69.662 24.3025 69.537 23.8792 69.5383 23.4466C69.5383 22.8685 69.7637 22.3139 70.1649 21.9044C70.5662 21.495 71.1107 21.264 71.6791 21.2622V21.2691ZM86.0512 82.0522H79.5606C79.6181 81.7552 79.6478 81.4533 79.6492 81.1507C79.6046 79.9994 79.1235 78.9104 78.3069 78.1119C77.4903 77.3134 76.4015 76.8674 75.2688 76.8674C74.136 76.8674 73.0472 77.3134 72.2306 78.1119C71.414 78.9104 70.9329 79.9994 70.8883 81.1507C70.8886 81.4538 70.9206 81.756 70.9837 82.0522H67.1248C67.3719 81.5507 67.5003 80.9973 67.4998 80.4364C67.5033 79.7457 67.3086 79.069 66.9397 78.4892C66.5707 77.9093 66.0435 77.4515 65.4227 77.1718C64.8018 76.8921 64.1142 76.8027 63.4441 76.9145C62.774 77.0263 62.1506 77.3344 61.6501 77.8012L61.5205 77.9191C60.993 78.4534 60.6465 79.1448 60.5313 79.8929C60.4161 80.641 60.5381 81.4071 60.8796 82.0799H45.8735L46.8825 80.3115H53.4482C53.7447 80.3115 54.0291 80.1917 54.2388 79.9784C54.4485 79.7652 54.5663 79.4759 54.5663 79.1743C54.5663 78.8726 54.4485 78.5833 54.2388 78.3701C54.0291 78.1568 53.7447 78.037 53.4482 78.037H48.2325L49.8824 75.263H55.3367C55.6191 75.2406 55.8827 75.1107 56.075 74.8993C56.2673 74.6878 56.3741 74.4103 56.3741 74.1223C56.3741 73.8342 56.2673 73.5568 56.075 73.3453C55.8827 73.1338 55.6191 73.0039 55.3367 72.9815H51.246L52.8345 70.3047H57.1503C57.4468 70.3047 57.7312 70.1849 57.9409 69.9716C58.1506 69.7583 58.2684 69.469 58.2684 69.1674C58.2684 68.8658 58.1506 68.5765 57.9409 68.3632C57.7312 68.1499 57.4468 68.0301 57.1503 68.0301H54.1709L56.7821 63.6682C57.7502 62.1286 57.6071 62.4199 57.6071 60.5891V51.7265H74.1063V59.9234C74.1063 62.4407 73.9086 62.0038 75.2517 64.1328L86.0512 82.0522ZM77.8289 82.0522H72.7086C72.5573 81.6329 72.5078 81.1828 72.5642 80.7399C72.6206 80.297 72.7813 79.8745 73.0327 79.5084C73.284 79.1422 73.6185 78.8432 74.0078 78.6367C74.3971 78.4302 74.8297 78.3224 75.2688 78.3224C75.7078 78.3224 76.1404 78.4302 76.5297 78.6367C76.919 78.8432 77.2535 79.1422 77.5048 79.5084C77.7562 79.8745 77.9169 80.297 77.9733 80.7399C78.0297 81.1828 77.9802 81.6329 77.8289 82.0522ZM64.9158 82.0522H63.0818C62.7301 81.8467 62.455 81.5288 62.2992 81.1479C62.1434 80.7671 62.1157 80.3445 62.2202 79.946C62.3248 79.5474 62.5558 79.1951 62.8774 78.9438C63.199 78.6925 63.5932 78.5563 63.9988 78.5563C64.4044 78.5563 64.7986 78.6925 65.1202 78.9438C65.4418 79.1951 65.6729 79.5474 65.7774 79.946C65.882 80.3445 65.8542 80.7671 65.6984 81.1479C65.5426 81.5288 65.2675 81.8467 64.9158 82.0522ZM64.2818 66.3588C65.0047 66.3561 65.7063 66.6086 66.2666 67.0733C66.827 67.538 67.2114 68.186 67.3544 68.9069C67.4973 69.6278 67.3899 70.3767 67.0505 71.026C66.7111 71.6753 66.1606 72.1847 65.4932 72.4673C64.8257 72.7498 64.0825 72.788 63.3904 72.5753C62.6983 72.3626 62.1002 71.9123 61.6981 71.3011C61.2961 70.6899 61.1151 69.9557 61.1859 69.2239C61.2567 68.492 61.5749 67.8079 62.0864 67.2881L62.2364 67.1355C62.7975 66.6202 63.5258 66.3338 64.2818 66.3311V66.3588ZM64.2818 68.0579C64.5682 68.0565 64.8486 68.1417 65.0873 68.3027C65.3261 68.4637 65.5124 68.6933 65.6226 68.9622C65.7329 69.2311 65.7621 69.5273 65.7065 69.8131C65.6509 70.0989 65.5132 70.3615 65.3106 70.5676C65.1081 70.7736 64.8499 70.9137 64.5689 70.9703C64.2879 71.0268 63.9967 70.9971 63.7323 70.8849C63.4679 70.7728 63.2422 70.5833 63.0839 70.3405C62.9256 70.0976 62.8418 69.8124 62.8432 69.5211C62.845 69.1336 62.9971 68.7625 63.2665 68.4884C63.5359 68.2144 63.9008 68.0597 64.2818 68.0579ZM76.438 51.4699V59.9234C76.4078 60.4801 76.4078 61.038 76.438 61.5947C76.438 61.6571 76.6494 61.9553 77.0584 62.5933L77.2562 62.8984L94.4167 91.4071C95.5967 93.2154 96.2361 95.3326 96.2576 97.5028C96.2421 98.642 95.9617 99.7612 95.4394 100.769C94.9012 101.79 94.1059 102.647 93.135 103.252C91.6914 104.115 90.0357 104.54 88.3625 104.479H46.2417C43.385 104.528 40.6374 104.583 37.992 102.211C37.2443 101.565 36.6463 100.759 36.2408 99.8503C35.8353 98.9415 35.6325 97.9528 35.6467 96.9549C35.7226 94.9462 36.4033 93.0096 37.5966 91.4071L54.3208 63.1827C54.3549 63.1342 55.289 61.6363 55.2958 61.6363C55.3026 61.6363 55.2958 61.5184 55.2958 61.2063V51.4075C54.1663 50.9861 53.2184 50.1741 52.6181 49.1135C52.0178 48.053 51.8034 46.8115 52.0122 45.6063C52.2211 44.4011 52.84 43.309 53.7606 42.5212C54.6812 41.7333 55.8449 41.2999 57.048 41.2967H74.8699C76.231 41.3112 77.5308 41.8749 78.4834 42.8639C79.441 43.8391 79.9788 45.161 79.9788 46.5393C79.9788 47.9176 79.441 49.2395 78.4834 50.2147L78.3129 50.3742C77.7716 50.8792 77.1298 51.26 76.4312 51.4907L76.438 51.4699ZM57.0344 43.6753H74.8699C75.6089 43.6771 76.3171 43.9765 76.8397 44.508C77.3622 45.0395 77.6566 45.7599 77.6584 46.5116C77.6566 47.2633 77.3622 47.9836 76.8397 48.5151C76.3171 49.0467 75.6089 49.3461 74.8699 49.3479H57.0344C56.2954 49.3461 55.5871 49.0467 55.0646 48.5151C54.542 47.9836 54.2476 47.2633 54.2458 46.5116C54.2476 45.7599 54.542 45.0395 55.0646 44.508C55.5871 43.9765 56.2954 43.6771 57.0344 43.6753Z" fill="#1400FF"/>
<path d="M127.725 67.5C127.725 102.098 100.172 130 66.3624 130C32.5526 130 5 102.098 5 67.5C5 32.9017 32.5526 5 66.3624 5C100.172 5 127.725 32.9017 127.725 67.5Z" stroke="#FF0000" stroke-width="10"/>
</svg>
