<svg width="135" height="102" viewBox="0 0 135 102" fill="none" xmlns="http://www.w3.org/2000/svg">
<path d="M135 71.25C135 75.2282 133.42 79.0436 130.607 81.8566C127.794 84.6696 123.978 86.25 120 86.25H15C11.0218 86.25 7.20644 84.6696 4.3934 81.8566C1.58035 79.0436 0 75.2282 0 71.25V60C0 56.0218 1.58035 52.2064 4.3934 49.3934C7.20644 46.5804 11.0218 45 15 45H120C123.978 45 127.794 46.5804 130.607 49.3934C133.42 52.2064 135 56.0218 135 60V71.25Z" fill="#DD2E44"/>
<path d="M71.25 18.75L67.5788 15H26.7975C15 15 11.25 22.5 11.25 22.5L0 44.8462V63.75H71.25V18.75Z" fill="#FFCC4D"/>
<path d="M33.75 45H7.5L15 30C15 30 18.75 22.5 26.25 22.5H33.75V45Z" fill="#55ACEE"/>
<path d="M48.75 86.25C48.75 90.2282 47.1696 94.0436 44.3566 96.8566C41.5436 99.6696 37.7282 101.25 33.75 101.25C29.7718 101.25 25.9564 99.6696 23.1434 96.8566C20.3304 94.0436 18.75 90.2282 18.75 86.25C18.75 82.2718 20.3304 78.4564 23.1434 75.6434C25.9564 72.8304 29.7718 71.25 33.75 71.25C37.7282 71.25 41.5436 72.8304 44.3566 75.6434C47.1696 78.4564 48.75 82.2718 48.75 86.25Z" fill="#292F33"/>
<path d="M41.2501 86.25C41.2498 87.2352 41.0556 88.2106 40.6783 89.1207C40.3011 90.0308 39.7483 90.8576 39.0515 91.5541C38.3547 92.2505 37.5276 92.8029 36.6173 93.1797C35.7071 93.5564 34.7315 93.7502 33.7463 93.75C32.7612 93.7498 31.7857 93.5555 30.8756 93.1782C29.9656 92.801 29.1387 92.2482 28.4423 91.5514C27.7458 90.8546 27.1934 90.0275 26.8167 89.1172C26.4399 88.207 26.2461 87.2314 26.2463 86.2462C26.2468 84.2566 27.0377 82.3487 28.4449 80.9422C29.8521 79.5357 31.7605 78.7458 33.7501 78.7462C35.7397 78.7467 37.6476 79.5376 39.0542 80.9448C40.4607 82.352 41.2506 84.2604 41.2501 86.25Z" fill="#CCD6DD"/>
<path d="M116.25 86.25C116.25 90.2282 114.67 94.0436 111.857 96.8566C109.044 99.6696 105.228 101.25 101.25 101.25C97.2718 101.25 93.4564 99.6696 90.6434 96.8566C87.8304 94.0436 86.25 90.2282 86.25 86.25C86.25 82.2718 87.8304 78.4564 90.6434 75.6434C93.4564 72.8304 97.2718 71.25 101.25 71.25C105.228 71.25 109.044 72.8304 111.857 75.6434C114.67 78.4564 116.25 82.2718 116.25 86.25Z" fill="#292F33"/>
<path d="M101.25 78.7502C99.2604 78.7507 97.3524 79.5415 95.9459 80.9487C94.5394 82.356 93.7495 84.2643 93.75 86.2539C93.7505 88.2435 94.5413 90.1515 95.9486 91.558C97.3558 92.9645 99.2641 93.7544 101.254 93.7539C102.239 93.7537 103.214 93.5594 104.124 93.1821C105.035 92.8049 105.861 92.2521 106.558 91.5553C107.254 90.8585 107.807 90.0314 108.183 89.1211C108.56 88.2109 108.754 87.2353 108.754 86.2502C108.753 85.265 108.559 84.2895 108.182 83.3795C107.805 82.4694 107.252 81.6425 106.555 80.9461C105.858 80.2496 105.031 79.6973 104.121 79.3205C103.211 78.9437 102.235 78.7499 101.25 78.7502ZM120 0.000160217H63.75C59.7718 0.000160217 55.9564 1.58052 53.1434 4.39356C50.3304 7.2066 48.75 11.0219 48.75 15.0002V63.7502H135V15.0002C135 11.0219 133.42 7.2066 130.607 4.39356C127.794 1.58052 123.978 0.000160217 120 0.000160217Z" fill="#CCD6DD"/>
</svg>
