<svg width="135" height="89" viewBox="0 0 135 89" fill="none" xmlns="http://www.w3.org/2000/svg">
<path fill-rule="evenodd" clip-rule="evenodd" d="M46.2522 55.0196C44.5651 54.712 42.8333 54.745 41.2022 55.1075C34.4651 56.5797 30.3648 62.9847 32.2306 69.5765C32.8451 71.7299 34.0517 73.7513 35.7499 75.4323C32.0295 74.4435 28.7894 73.1031 24.4321 70.3676C16.8236 65.5995 11.6842 59.4581 8.83524 52.8993C6.65659 47.8566 5.81865 42.5502 6.26555 37.3866C6.70128 32.223 8.39951 27.2023 11.282 22.7748C14.8796 17.2267 20.3318 12.5575 27.4934 9.55822C31.6161 7.83336 36.6996 6.77867 41.9395 6.32823C47.7493 5.82286 53.7043 6.0316 58.7431 6.86656C61.3351 7.29503 63.4914 8.21788 65.0332 9.60216C66.3851 10.8326 67.3013 12.4696 67.5694 14.524C68.5861 21.9947 67.5694 29.8939 68.1169 37.4415C68.3626 40.7264 68.5302 43.1434 65.0556 43.5279C63.7819 43.6598 62.62 43.6158 61.5809 43.3851C59.2458 42.9017 57.3912 41.5394 56.0393 39.7377C54.5869 37.7821 53.7042 35.2772 53.4026 32.6625C53.2015 30.8937 53.2797 29.0809 53.626 27.378C54.0729 25.796 53.1344 24.159 51.5368 23.6756C44.2634 21.5223 50.3301 37.4855 36.7778 37.859C36.3868 37.87 35.9957 37.881 35.7388 37.892C34.0405 37.9469 32.6998 39.3422 32.7557 41.0121C32.8116 42.682 34.2305 44.0004 35.9287 43.9454C36.3868 43.9344 36.6661 43.9235 36.9342 43.9125C42.8892 43.7477 46.0399 43.6598 48.833 39.3531C49.4252 40.7594 50.1625 42.0887 51.0675 43.3082C51.4362 43.8026 51.8273 44.264 52.2518 44.6815C50.6988 45.5275 49.3246 46.703 48.2744 48.1861C48.1738 48.307 48.0956 48.4498 47.9951 48.5817C46.7214 50.5812 46.1628 52.8004 46.2522 55.0196ZM45.4366 82.079L51.6262 86.1219C56.4304 89.253 61.391 88.7367 65.0667 86.3417C66.4745 85.4298 67.6811 84.2323 68.6196 82.848C69.5581 81.4637 70.2173 79.8927 70.5078 78.2448C70.6307 77.5526 70.6977 76.8385 70.6865 76.1244C71.9714 76.2782 73.2786 76.2233 74.5299 75.9816C77.4906 75.3993 80.2167 73.7513 82.0043 71.2245C82.1049 71.0927 82.1831 70.9608 82.2837 70.829C84.0601 68.0824 84.4511 64.9183 83.6914 61.952C83.5238 61.3148 83.3115 60.6886 83.0322 60.0843C85.1774 60.5458 87.3448 60.4908 89.3671 59.9745C92.6071 59.1505 95.4449 57.14 97.1432 54.0858C98.8414 51.0316 99.0313 47.5599 98.0035 44.4178C96.9756 41.3417 94.7522 38.5621 91.5681 36.8483C84.9874 33.3107 84.1048 32.9371 83.2222 32.5636C82.563 32.2779 81.915 32.0143 77.9934 29.9379L121.689 29.8939V29.9049V29.8829C125.332 29.8829 128.627 28.4986 131.03 26.2794C136.325 21.3685 136.325 13.3924 131.018 8.49254C128.605 6.26232 125.298 4.90001 121.667 4.90001V4.88902V4.90001L71.5021 4.93297V4.92198L69.1671 5.14171C66.7203 2.93346 63.4802 1.51622 59.7486 0.890001C54.2629 -0.0108779 47.7493 -0.263563 41.3921 0.296739C35.5488 0.813097 29.8061 2.01061 25.0801 3.98815C16.7454 7.47081 10.3547 12.975 6.10914 19.5228C2.66799 24.8182 0.645754 30.7618 0.131816 36.8812C-0.382122 42.9896 0.601063 49.2958 3.18192 55.2723C6.47783 62.9078 12.3993 69.983 21.1362 75.4762C29.1693 80.5189 33.6383 81.3759 42.3529 83.0348L42.5317 83.0787C43.6489 83.2765 44.7439 82.87 45.4366 82.079ZM49.9838 63.2924C50.5983 63.9186 51.291 64.5008 52.0507 65.0172L63.7596 73.0482C64.6869 74.4325 64.9438 75.8937 64.6981 77.234C64.5416 78.0909 64.2065 78.9039 63.7037 79.64C63.2121 80.3651 62.5641 81.0133 61.8267 81.4967C59.9721 82.7052 57.4247 82.9359 54.8997 81.277L41.2133 72.3341C39.5374 71.2465 38.3978 69.6974 37.9286 68.0165C36.9789 64.6437 39.0458 61.5016 42.487 60.7435C44.0623 60.403 45.7717 60.6227 47.28 61.5016C47.3918 61.5785 47.47 61.6224 47.5146 61.6444L49.9838 63.2924ZM64.4299 65.7753L53.8383 58.8539C53.1121 57.9969 52.5982 57.0301 52.3524 56.0304C51.9725 54.5582 52.1401 53.0091 53.0004 51.6908C53.0451 51.6249 53.0898 51.5699 53.1233 51.493C54.0059 50.2406 55.3913 49.4276 56.9108 49.12C58.4414 48.8234 60.1061 49.0541 61.525 49.944C61.6032 49.9989 61.6703 50.0428 61.7485 50.0868L74.8986 59.1066C76.4851 60.1942 77.5577 61.7323 77.971 63.3583C78.3509 64.8304 78.1833 66.3905 77.323 67.6979C77.2784 67.7748 77.2337 67.8297 77.2001 67.8956C76.3175 69.1481 74.9321 69.9611 73.4126 70.2687C71.882 70.5653 70.2173 70.3346 68.7984 69.4447C68.7202 69.3898 68.6531 69.3458 68.5749 69.3019L68.0163 68.9174C67.0778 67.7967 65.9047 66.7311 64.4299 65.7753ZM92.1267 46.2745C92.663 47.9005 92.5736 49.6583 91.7356 51.1744C90.8977 52.6686 89.4676 53.6683 87.8252 54.0968C86.06 54.5472 84.0713 54.3495 82.2501 53.4156L71.7144 47.9994C73.1222 46.9667 74.2953 45.6923 75.2002 44.1432C76.4516 42.0338 77.1666 39.474 77.2895 36.4198C79.5799 37.6173 80.1832 37.87 80.7754 38.1117C81.5574 38.4303 82.3283 38.7709 88.585 42.1327C90.3503 43.0885 91.5569 44.5936 92.1267 46.2745ZM126.784 21.8629C125.477 23.0824 123.667 23.8295 121.667 23.8404V23.8185V23.8295L74.5969 23.8734L74.5858 10.9755L121.656 10.9315V10.9425V10.9315C123.656 10.9315 125.477 11.6786 126.784 12.8871C129.488 15.4029 129.499 19.347 126.784 21.8629Z" fill="#C07200"/>
<path fill-rule="evenodd" clip-rule="evenodd" d="M117.76 27.7393C118.87 32.4744 120.145 36.2646 121.562 39.0662C122.979 41.8787 125.143 44.9219 128.055 48.2068L129.307 49.6021C133.108 53.8318 134.998 58.0615 134.998 62.2913C134.998 66.9714 133.306 70.9814 129.933 74.3213C126.539 77.6611 122.496 79.342 117.782 79.342C113.08 79.342 109.048 77.6611 105.654 74.3213C102.27 70.9814 100.578 66.9714 100.578 62.2913C100.578 58.0615 102.468 53.8318 106.269 49.6021L107.521 48.2068C110.422 44.9219 112.586 41.8787 114.014 39.0662C115.398 36.2646 116.662 32.4744 117.76 27.7393ZM126.242 60.8411V63.8733C126.242 64.4885 125.737 64.9939 125.121 64.9939H120.43V69.6851C120.43 70.3003 119.925 70.8057 119.31 70.8057H116.277C115.662 70.8057 115.157 70.3003 115.157 69.6851V64.9939H110.466C109.85 64.9939 109.345 64.4885 109.345 63.8733V60.8411C109.345 60.2258 109.85 59.7205 110.466 59.7205H115.157V55.0293C115.157 54.4141 115.662 53.9087 116.277 53.9087H119.31C119.925 53.9087 120.43 54.4141 120.43 55.0293V59.7205H125.121C125.737 59.7205 126.242 60.2148 126.242 60.8411ZM118.848 8.29346C120.947 8.29346 122.66 9.99634 122.66 12.1057C122.66 14.2151 120.958 15.918 118.848 15.918C116.739 15.918 115.036 14.2151 115.036 12.1057C115.036 9.99634 116.739 8.29346 118.848 8.29346Z" fill="#FF0C00"/>
</svg>
