<svg width="135" height="119" viewBox="0 0 135 119" fill="none" xmlns="http://www.w3.org/2000/svg">
<path d="M96.4286 69.2139H119.406C119.155 69.5229 118.903 69.7932 118.652 70.025C118.401 70.2567 118.175 70.4498 117.974 70.6043L117.748 70.9133L70.8147 117.262C69.9107 118.189 68.8058 118.652 67.5 118.652C66.1942 118.652 65.0893 118.189 64.1853 117.262L17.1763 70.7588C16.9252 70.6558 16.3979 70.1408 15.5943 69.2139H43.3929C44.4978 69.2139 45.4897 68.8663 46.3686 68.171C47.2475 67.4758 47.8125 66.5874 48.0636 65.506L53.3371 43.7994L67.6507 95.3236C67.952 96.3535 68.5296 97.2033 69.3834 97.8727C70.2372 98.5422 71.2165 98.877 72.3214 98.877C73.3761 98.877 74.3304 98.5422 75.1842 97.8727C76.0379 97.2033 76.6155 96.3535 76.9169 95.3236L87.9157 57.8585L92.1345 66.5102C93.0385 68.3126 94.4699 69.2139 96.4286 69.2139ZM135 36.1519C135 43.6192 132.414 51.3439 127.241 59.3262H99.442L91.0798 42.2544C90.678 41.379 90.0377 40.6837 89.1588 40.1688C88.2799 39.6538 87.3633 39.4478 86.409 39.5508C84.149 39.8083 82.7427 40.9927 82.1903 43.1042L72.4721 76.3206L57.7065 23.3288C57.4051 22.2988 56.815 21.4491 55.9361 20.7796C55.0572 20.1101 54.0653 19.7754 52.9604 19.7754C51.8555 19.7754 50.8761 20.123 50.0223 20.8182C49.1685 21.5135 48.6161 22.4018 48.365 23.4833L39.6261 59.3262H7.75949C2.5865 51.3439 0 43.6192 0 36.1519C0 24.8222 3.18917 15.9645 9.56752 9.5787C15.9459 3.1929 24.76 0 36.01 0C39.1239 0 42.3005 0.553608 45.5399 1.66082C48.7793 2.76804 51.7927 4.26149 54.5801 6.14119C57.3675 8.02088 59.7656 9.7847 61.7746 11.4326C63.7835 13.0806 65.692 14.8315 67.5 16.6855C69.308 14.8315 71.2165 13.0806 73.2254 11.4326C75.2344 9.7847 77.6325 8.02088 80.4199 6.14119C83.2073 4.26149 86.2207 2.76804 89.4601 1.66082C92.6995 0.553608 95.8761 0 98.99 0C110.24 0 119.054 3.1929 125.432 9.5787C131.811 15.9645 135 24.8222 135 36.1519Z" fill="#FF0000"/>
</svg>
