<svg width="135" height="96" viewBox="0 0 135 96" fill="none" xmlns="http://www.w3.org/2000/svg">
<path fill-rule="evenodd" clip-rule="evenodd" d="M111.506 57.3887C111.179 56.9125 110.677 56.5844 110.11 56.4755C109.542 56.3665 108.955 56.4855 108.474 56.8066C108.094 57.0818 107.811 57.4719 107.668 57.9195C107.526 58.3671 107.53 58.8487 107.681 59.2936C107.833 59.7384 108.122 60.1231 108.508 60.3911C108.894 60.6591 109.356 60.7963 109.825 60.7826L110.407 61.9579C109.33 62.7461 108.391 63.7074 107.629 64.8026C107.576 64.8875 107.518 64.9683 107.453 65.0442L105.619 64.3303C105.584 63.9051 105.456 63.4927 105.245 63.1221C104.956 62.611 104.521 62.1974 103.996 61.9338C103.471 61.6703 102.879 61.5686 102.296 61.6417C101.713 61.7148 101.165 61.9594 100.721 62.3445C100.278 62.7296 99.9584 63.2378 99.8039 63.8046C99.6495 64.3714 99.6669 64.9713 99.8539 65.5283C100.041 66.0852 100.389 66.574 100.854 66.9327C101.32 67.2915 101.881 67.5039 102.467 67.5431C103.053 67.5824 103.638 67.4466 104.147 67.153C104.441 66.9907 104.705 66.7789 104.927 66.527L106.398 67.1311C105.727 68.6868 105.398 70.3686 105.432 72.0627H103.96C103.635 71.7419 103.219 71.5303 102.768 71.4573C102.318 71.3843 101.855 71.4534 101.446 71.6551C101.036 71.8569 100.7 72.1811 100.483 72.5829C100.267 72.9846 100.18 73.4439 100.237 73.8969C100.318 74.369 100.551 74.8017 100.9 75.1291C101.25 75.4564 101.697 75.6606 102.174 75.7103C102.65 75.7601 103.13 75.6527 103.539 75.4047C103.949 75.1566 104.267 74.7814 104.443 74.3363H105.718C105.924 75.2626 106.237 76.1619 106.651 77.0162L103.894 78.7406C103.528 78.6714 103.151 78.6941 102.796 78.8065C102.39 78.9407 102.033 79.1902 101.767 79.5245C101.501 79.8589 101.338 80.2635 101.299 80.6888C101.259 81.1142 101.344 81.5419 101.544 81.9195C101.744 82.297 102.05 82.6082 102.423 82.8148C102.797 83.0214 103.223 83.1145 103.649 83.0827C104.075 83.0509 104.483 82.8955 104.822 82.6357C105.161 82.3758 105.417 82.0227 105.559 81.6196C105.7 81.2166 105.721 80.781 105.619 80.3662L107.859 79.0811C108.619 80.0806 109.526 80.9584 110.55 81.6842C110.627 81.7418 110.707 81.7932 110.792 81.838L110.045 83.4745C109.565 83.4525 109.086 83.5467 108.65 83.7491C108.119 83.9969 107.673 84.3966 107.368 84.8978C107.064 85.399 106.915 85.9792 106.941 86.5649C106.966 87.1507 107.164 87.7158 107.511 88.1889C107.857 88.6619 108.336 89.0217 108.887 89.2226C109.438 89.4236 110.036 89.4568 110.605 89.3181C111.175 89.1793 111.691 88.8748 112.087 88.443C112.484 88.0112 112.744 87.4715 112.834 86.8921C112.924 86.3128 112.84 85.7197 112.593 85.1879C112.472 84.9304 112.317 84.6903 112.132 84.474L112.824 82.8814C114.422 83.5512 116.145 83.8696 117.876 83.815L118.041 85.7042C117.662 85.9768 117.372 86.3558 117.208 86.7932C117.044 87.2306 117.014 87.7068 117.12 88.1615C117.227 88.6163 117.466 89.0291 117.808 89.3479C118.149 89.6666 118.578 89.8769 119.039 89.9522C119.5 90.0275 119.973 89.9644 120.398 89.7709C120.823 89.5773 121.181 89.2621 121.427 88.8649C121.673 88.4678 121.795 88.0067 121.779 87.5399C121.763 87.073 121.609 86.6215 121.336 86.2423C121.084 85.8873 120.738 85.6096 120.337 85.4406L120.161 83.5184C122.039 83.094 123.787 82.2237 125.257 80.9813L126.542 82.2444C126.431 82.5062 126.365 82.7845 126.345 83.0681C126.291 83.651 126.411 84.2367 126.69 84.7514C126.969 85.2661 127.394 85.6867 127.911 85.9603C128.429 86.2339 129.016 86.3483 129.598 86.289C130.181 86.2296 130.732 85.9993 131.184 85.627C131.636 85.2547 131.967 84.757 132.136 84.1967C132.306 83.6363 132.305 83.0384 132.136 82.4782C131.966 81.9181 131.634 81.4207 131.182 81.0487C130.73 80.6768 130.178 80.447 129.596 80.3882C129.116 80.3416 128.632 80.4171 128.19 80.6078L126.905 79.3447C127.069 79.125 127.234 78.9164 127.388 78.6967C128.046 77.7651 128.567 76.7443 128.937 75.6653L130.782 76.2254C130.944 76.6062 131.21 76.9335 131.55 77.1697C131.89 77.4058 132.289 77.5411 132.703 77.5601C133.116 77.579 133.526 77.4808 133.886 77.2768C134.246 77.0727 134.542 76.7711 134.738 76.4067C134.934 76.0423 135.023 75.6299 134.995 75.2171C134.967 74.8042 134.823 74.4076 134.579 74.073C134.336 73.7384 134.003 73.4794 133.619 73.3259C133.234 73.1723 132.814 73.1304 132.407 73.205C131.912 73.2936 131.462 73.5495 131.133 73.9299L129.475 73.4027C129.641 72.1576 129.615 70.8945 129.398 69.6573C129.186 68.5379 128.816 67.4544 128.3 66.4391L129.76 65.6813C130.15 65.8827 130.586 65.9775 131.023 65.9558C131.491 65.9286 131.939 65.7632 132.312 65.4805C132.685 65.1978 132.966 64.8107 133.119 64.3682C133.271 63.9257 133.289 63.4478 133.169 62.9953C133.05 62.5428 132.798 62.136 132.447 61.8265C132.096 61.5171 131.661 61.3191 131.197 61.2575C130.733 61.1959 130.261 61.2736 129.841 61.4807C129.422 61.6878 129.073 62.0149 128.839 62.4206C128.606 62.8263 128.498 63.2922 128.53 63.7592L127.08 64.506C126.453 63.6571 125.714 62.8961 124.884 62.2434L126.224 59.6843C126.555 59.7394 126.892 59.7394 127.223 59.6843C127.852 59.5823 128.431 59.2796 128.874 58.8214C129.317 58.3632 129.6 57.7741 129.681 57.142C129.762 56.5099 129.636 55.8686 129.322 55.3138C129.009 54.7591 128.524 54.3206 127.941 54.0638C127.358 53.807 126.707 53.7456 126.086 53.8889C125.465 54.0322 124.907 54.3724 124.495 54.8587C124.083 55.3451 123.84 55.9516 123.801 56.5877C123.762 57.2237 123.93 57.8553 124.28 58.3882L122.929 60.9913C121.609 60.3183 120.174 59.8974 118.7 59.7502L118.535 58.2125C118.877 58.0115 119.157 57.7219 119.347 57.3743C119.538 57.0268 119.63 56.6344 119.616 56.2385C119.601 55.8426 119.48 55.458 119.264 55.1255C119.049 54.793 118.748 54.5249 118.392 54.3496C118.037 54.1743 117.641 54.0984 117.246 54.1298C116.851 54.1613 116.472 54.299 116.149 54.5283C115.826 54.7576 115.571 55.0699 115.411 55.4324C115.251 55.7948 115.192 56.1937 115.24 56.5869C115.275 56.9137 115.383 57.2284 115.556 57.5078C115.729 57.7872 115.963 58.0243 116.24 58.2015L116.404 59.6843C116.075 59.6843 115.756 59.7612 115.438 59.8161C114.406 59.9971 113.402 60.3109 112.45 60.7497L111.736 59.4207C111.874 59.0883 111.928 58.7272 111.894 58.3691C111.859 58.0109 111.737 57.6667 111.539 57.3668L111.506 57.3887ZM76.3367 0C92.6252 10.3245 107.332 15.2011 119.952 14.0479C120.622 27.4368 119.59 39.1781 117.052 49.3488H116.679C114.826 49.5397 113.125 50.4558 111.945 51.897L111.704 51.8201C114.471 42.2205 115.636 30.9515 114.999 17.9141C103.817 18.9355 90.8349 14.619 76.3916 5.48076C63.9144 15.1682 51.0417 18.0019 37.9494 17.31C37.8835 19.8142 37.8835 22.2416 37.9494 24.592C36.3882 23.8564 34.6606 23.5457 32.9409 23.6914C32.8311 20.3744 32.8311 16.9365 32.9409 13.3779C47.7027 14.1467 62.2449 10.9835 76.3367 0ZM97.0625 83.826C91.0099 89.0993 84.0407 93.2168 76.5014 95.9737C63.3872 91.163 52.7661 83.167 45.2754 71.206C45.9516 69.9994 46.3634 68.6628 46.4836 67.2848V67.2848C46.5882 66.0791 46.4653 64.8645 46.1211 63.7042C52.7112 77.0052 63.1675 85.6053 76.4685 90.46C84.0337 87.7175 90.9352 83.4097 96.722 77.818C96.8001 77.9289 96.8845 78.0352 96.9747 78.1365C96.2971 79.7259 96.2306 81.5096 96.7879 83.145V83.2658C96.8554 83.4563 96.9324 83.6432 97.0186 83.826H97.0625ZM14.6864 34.2136C14.4206 33.8206 14.0565 33.5042 13.6302 33.2959C13.204 33.0877 12.7307 32.9948 12.2573 33.0266C11.784 33.0584 11.3273 33.2137 10.9328 33.4771C10.5383 33.7405 10.2197 34.1028 10.0089 34.5277C9.79803 34.9527 9.70233 35.4255 9.73128 35.899C9.76024 36.3725 9.91285 36.8301 10.1739 37.2262C10.4349 37.6223 10.7953 37.9431 11.2189 38.1564C11.6426 38.3698 12.1149 38.4683 12.5885 38.4422L13.3244 39.892C11.9855 40.8659 10.8197 42.0577 9.87561 43.4177L9.65594 43.7253L7.33842 42.8356C7.29538 42.308 7.14195 41.7954 6.8881 41.3309C6.53187 40.6962 5.99542 40.1814 5.34659 39.8516C4.69776 39.5219 3.96571 39.3919 3.24303 39.4783C2.52035 39.5646 1.8395 39.8633 1.28661 40.3366C0.733716 40.81 0.333617 41.4366 0.136919 42.1374C-0.0597792 42.8381 -0.0442404 43.5814 0.18157 44.2733C0.40738 44.9652 0.833318 45.5746 1.40551 46.0244C1.9777 46.4742 2.67043 46.7442 3.39609 46.8003C4.12175 46.8563 4.84773 46.6959 5.48221 46.3393C5.84483 46.1385 6.17148 45.8786 6.44876 45.5705L8.27202 46.3064C7.4851 48.2511 7.11107 50.3382 7.17367 52.4352H5.35041C4.94122 52.0156 4.40669 51.7404 3.82743 51.6511C3.24817 51.5619 2.65559 51.6634 2.13907 51.9404C1.62256 52.2174 1.21011 52.6548 0.963932 53.1867C0.717757 53.7186 0.651206 54.3161 0.774316 54.8891C0.897426 55.4621 1.20352 55.9796 1.64644 56.3634C2.08935 56.7473 2.64506 56.9767 3.22977 57.0171C3.81447 57.0575 4.39645 56.9066 4.88794 56.5873C5.37943 56.268 5.75377 55.7976 5.9545 55.2469H7.48121C7.71598 56.3848 8.08467 57.4908 8.57955 58.542L5.24057 60.7277C4.76927 60.6252 4.27873 60.6556 3.8237 60.8156C3.32973 60.9873 2.8962 61.2987 2.57573 61.712C2.25527 62.1253 2.06162 62.6227 2.0183 63.1439C1.97498 63.6651 2.08385 64.1876 2.33169 64.6481C2.57952 65.1087 2.95569 65.4874 3.41453 65.7383C3.87338 65.9892 4.39519 66.1016 4.91665 66.0618C5.43811 66.022 5.93681 65.8317 6.35224 65.514C6.76767 65.1963 7.08198 64.7649 7.25704 64.2721C7.43209 63.7793 7.46036 63.2462 7.33842 62.7377L10.1612 61.0902C11.1009 62.3361 12.2315 63.4259 13.5111 64.3193L13.7967 64.528L12.8851 66.6258C12.082 66.586 11.288 66.8103 10.6245 67.2644C9.96096 67.7185 9.46446 68.3775 9.21092 69.1405C8.95738 69.9036 8.96075 70.7286 9.22053 71.4896C9.48031 72.2505 9.98219 72.9054 10.6494 73.3541C11.3166 73.8028 12.1124 74.0205 12.9152 73.9741C13.7179 73.9277 14.4833 73.6196 15.0943 73.097C15.7053 72.5743 16.1283 71.8659 16.2987 71.0801C16.469 70.2943 16.3772 69.4744 16.0373 68.7457C15.8968 68.4232 15.7038 68.1263 15.4662 67.867L16.3339 65.8899C18.3208 66.7039 20.4602 67.0785 22.6055 66.9883L22.8142 69.3388C22.3014 69.72 21.9289 70.2599 21.7545 70.8745C21.5802 71.4892 21.6137 72.1443 21.85 72.738C22.0862 73.3316 22.5119 73.8306 23.061 74.1574C23.61 74.4843 24.2516 74.6206 24.8861 74.5452C25.5206 74.4699 26.1124 74.187 26.5696 73.7407C27.0268 73.2944 27.3238 72.7095 27.4144 72.0771C27.5051 71.4446 27.3842 70.7999 27.0707 70.2431C26.7572 69.6864 26.2686 69.2488 25.6808 68.9983L25.4722 66.6698C27.8189 66.1485 30.0046 65.067 31.8426 63.5175L33.4352 65.0882C33.3046 65.4148 33.2232 65.7591 33.1935 66.1096C33.125 66.9071 33.3192 67.7052 33.7465 68.382C34.1738 69.0589 34.8108 69.5774 35.5602 69.8585C36.3097 70.1396 37.1305 70.1679 37.8975 69.939C38.6646 69.7101 39.3357 69.2366 39.8085 68.5908C40.2814 67.9449 40.53 67.1622 40.5165 66.3618C40.503 65.5615 40.2281 64.7875 39.7338 64.158C39.2394 63.5285 38.5527 63.0779 37.7784 62.875C37.0041 62.6721 36.1847 62.728 35.4452 63.0342L33.7976 61.5075C34.0063 61.2439 34.215 60.9693 34.4017 60.6948C35.2183 59.5447 35.8656 58.2834 36.3238 56.9494L38.6194 57.6413C38.833 58.0994 39.1703 58.4886 39.5933 58.7652C40.0163 59.0418 40.5081 59.1947 41.0133 59.2068C41.5186 59.2189 42.0171 59.0896 42.4528 58.8335C42.8885 58.5774 43.244 58.2046 43.4792 57.7573C43.7144 57.31 43.82 56.8059 43.7841 56.3018C43.7482 55.7977 43.5722 55.3137 43.2759 54.9042C42.9796 54.4948 42.5749 54.1763 42.1073 53.9845C41.6397 53.7928 41.1278 53.7355 40.6294 53.8191C40.0181 53.9233 39.4625 54.2381 39.0587 54.7088L36.9829 54.0497C37.1905 52.5133 37.1646 50.9544 36.906 49.4257C36.6588 48.0386 36.2188 46.6929 35.5989 45.4277L37.4222 44.4831C37.9016 44.736 38.4407 44.8537 38.9818 44.8236C39.5596 44.7905 40.1147 44.5871 40.5771 44.2391C41.0396 43.8912 41.3887 43.4141 41.5806 42.8681C41.7724 42.3221 41.7985 41.7316 41.6554 41.1708C41.5123 40.61 41.2065 40.1042 40.7765 39.7168C40.3465 39.3295 39.8115 39.0781 39.2389 38.9942C38.6662 38.9103 38.0816 38.9978 37.5586 39.2455C37.0355 39.4932 36.5975 39.8902 36.2996 40.3863C36.0017 40.8825 35.8573 41.4557 35.8845 42.0338L34.0393 42.9784C33.2421 41.9287 32.3117 40.9872 31.2714 40.1776L32.9409 37.0034C33.709 37.1453 34.5023 37.0391 35.206 36.7002C35.9097 36.3613 36.4873 35.8073 36.8552 35.1183C37.2232 34.4293 37.3623 33.6411 37.2524 32.8678C37.1426 32.0945 36.7896 31.3762 36.2444 30.8169C35.6992 30.2576 34.9902 29.8862 34.2199 29.7567C33.4497 29.6271 32.6582 29.746 31.96 30.0962C31.2618 30.4463 30.6932 31.0096 30.3364 31.7044C29.9796 32.3992 29.8532 33.1895 29.9754 33.9609C30.0584 34.4782 30.2492 34.9721 30.5355 35.4108L28.877 38.6399C27.2376 37.8059 25.4572 37.2845 23.6269 37.1022L23.4182 35.268C23.9163 34.9547 24.2991 34.488 24.5088 33.9382C24.7184 33.3884 24.7437 32.7853 24.5807 32.2199C24.4176 31.6545 24.0752 31.1575 23.605 30.8037C23.1348 30.4499 22.5623 30.2586 21.9739 30.2586C21.3855 30.2586 20.813 30.4499 20.3428 30.8037C19.8726 31.1575 19.5302 31.6545 19.3672 32.2199C19.2042 32.7853 19.2294 33.3884 19.4391 33.9382C19.6487 34.488 20.0315 34.9547 20.5296 35.268L20.7273 37.1022C20.3319 37.1022 19.9365 37.1901 19.5301 37.267C18.2548 37.4752 17.0111 37.8443 15.8287 38.3653L14.939 36.7178C15.1129 36.3057 15.1808 35.8567 15.1367 35.4116C15.0926 34.9665 14.9378 34.5396 14.6864 34.1696V34.2136ZM16.8282 43.0004C17.6845 42.85 18.5663 42.9571 19.3617 43.3082C20.1572 43.6592 20.8306 44.2384 21.2967 44.9724C21.7628 45.7064 22.0006 46.5622 21.9801 47.4314C21.9595 48.3006 21.6815 49.1442 21.1813 49.8554C20.681 50.5665 19.981 51.1132 19.1698 51.4263C18.3587 51.7393 17.4729 51.8047 16.6245 51.614C15.7762 51.4234 15.0036 50.9853 14.4044 50.3553C13.8052 49.7252 13.4064 48.9315 13.2585 48.0747C13.0607 46.9287 13.3254 45.751 13.9946 44.7998C14.6637 43.8486 15.6827 43.2015 16.8282 43.0004V43.0004ZM22.3968 54.2474C23.2536 54.0966 24.136 54.2036 24.9319 54.5548C25.7279 54.906 26.4017 55.4857 26.8679 56.2203C27.334 56.9548 27.5716 57.8113 27.5505 58.6811C27.5293 59.5508 27.2504 60.3947 26.7491 61.1058C26.2478 61.8169 25.5467 62.3631 24.7346 62.6752C23.9225 62.9874 23.036 63.0514 22.1875 62.8591C21.339 62.6669 20.5667 62.227 19.9685 61.5953C19.3702 60.9636 18.973 60.1685 18.8271 59.3108C18.6262 58.1631 18.8893 56.9826 19.5588 56.0289C20.2282 55.0752 21.2491 54.4265 22.3968 54.2255V54.2474ZM28.8441 45.922C29.3341 45.836 29.8387 45.8973 30.2939 46.098C30.7491 46.2988 31.1345 46.6301 31.4014 47.05C31.6683 47.4699 31.8047 47.9595 31.7933 48.4569C31.782 48.9542 31.6233 49.4371 31.3375 49.8443C31.0517 50.2516 30.6515 50.5649 30.1876 50.7446C29.7237 50.9244 29.2169 50.9625 28.7313 50.8542C28.2457 50.7459 27.8031 50.4961 27.4595 50.1362C27.116 49.7763 26.8869 49.3227 26.8012 48.8326C26.7428 48.5072 26.7494 48.1735 26.8207 47.8506C26.8919 47.5278 27.0264 47.2223 27.2163 46.9517C27.4062 46.6811 27.6479 46.4508 27.9272 46.2741C28.2066 46.0973 28.5182 45.9777 28.8441 45.922V45.922ZM113.219 64.4841C113.909 64.3617 114.619 64.4467 115.26 64.7283C115.901 65.0098 116.444 65.4753 116.82 66.0658C117.196 66.6562 117.389 67.345 117.373 68.045C117.358 68.7449 117.135 69.4245 116.733 69.9976C116.33 70.5707 115.767 71.0116 115.114 71.2644C114.461 71.5172 113.748 71.5705 113.065 71.4176C112.382 71.2648 111.759 70.9125 111.276 70.4056C110.794 69.8986 110.472 69.2598 110.353 68.5699C110.272 68.1134 110.282 67.6454 110.383 67.1928C110.483 66.7402 110.672 66.3119 110.938 65.9324C111.205 65.5529 111.543 65.2296 111.935 64.9811C112.326 64.7326 112.763 64.5637 113.219 64.4841V64.4841ZM117.711 73.5235C118.4 73.4038 119.109 73.4909 119.749 73.7739C120.388 74.0569 120.929 74.5231 121.304 75.1135C121.678 75.704 121.869 76.3922 121.853 77.0912C121.836 77.7902 121.613 78.4686 121.211 79.0408C120.809 79.6129 120.247 80.0531 119.595 80.3057C118.943 80.5583 118.231 80.612 117.548 80.46C116.866 80.308 116.244 79.9571 115.76 79.4517C115.277 78.9462 114.955 78.3089 114.834 77.6203C114.674 76.6957 114.887 75.7455 115.427 74.9777C115.966 74.2099 116.788 73.687 117.711 73.5235V73.5235ZM122.907 66.8126C123.303 66.7425 123.71 66.7915 124.078 66.9533C124.447 67.1151 124.758 67.3824 124.974 67.7215C125.19 68.0606 125.301 68.4562 125.292 68.8582C125.283 69.2601 125.155 69.6504 124.925 69.9797C124.694 70.3089 124.371 70.5623 123.996 70.7078C123.621 70.8532 123.211 70.8842 122.819 70.7967C122.426 70.7093 122.069 70.5074 121.791 70.2166C121.513 69.9258 121.328 69.5591 121.259 69.163C121.167 68.6329 121.288 68.0878 121.597 67.6471C121.906 67.2065 122.377 66.9063 122.907 66.8126V66.8126Z" fill="white"/>
<path fill-rule="evenodd" clip-rule="evenodd" d="M76.743 15.2666C87.8583 22.307 97.8862 25.635 106.53 24.8442C108.035 55.2575 96.8098 73.1716 76.8748 80.7062L76.5013 80.5744L76.1279 80.7062C56.2148 73.2155 45.0227 55.2575 46.4835 24.8442C55.0945 25.635 65.1554 22.307 76.2267 15.2666L76.4903 15.4643L76.743 15.2666Z" fill="#20DA0F"/>
<path d="M69.2634 48.4696C70.0446 49.1511 70.7786 49.8851 71.4601 50.6663C73.5531 47.2818 75.8761 44.045 78.4127 40.9788C85.3762 32.5655 84.5634 31.8516 94.1849 31.8516L92.8559 33.3343C88.8296 37.8073 85.0879 42.5285 81.6528 47.4701C78.3209 52.2971 75.2981 57.3303 72.6024 62.5394L71.7676 64.143L71.0098 62.5065C69.6497 59.5363 67.9308 56.744 65.8915 54.192C63.8582 51.663 61.4681 49.4431 58.7961 47.6019C60.1361 43.2085 66.858 46.3937 69.2744 48.4476L69.2634 48.4696Z" fill="white"/>
</svg>
