<svg width="112" height="65" viewBox="0 0 112 65" fill="none" xmlns="http://www.w3.org/2000/svg">
<path d="M36.1125 5.67906C35.0277 4.3799 35.0277 2.27353 36.1125 0.97437C37.1972 -0.32479 38.956 -0.32479 40.0407 0.97437C41.1255 2.27353 41.1255 4.3799 40.0407 5.67906C38.956 6.97822 37.1972 6.97822 36.1125 5.67906Z" fill="#FF0000"/>
<path d="M35.28 14.4406C35.7392 17.875 39.9509 16.5044 39.9509 14.4406C43.7894 14.4406 45.8081 21.8639 44.5472 25.0924C42.3857 30.6267 35.9988 29.9238 35.7392 25.8247C35.4795 21.7256 34.0727 17.7249 30.3641 17.7249C25.1174 17.7249 24.4427 22.962 24.3562 25.8247C24.178 31.7179 27.0466 36.4765 33.9451 36.4765C36.6153 54.2516 44.7901 63.1079 47.4603 64.0177C50.1305 64.9276 52.2444 64.0177 53.5424 62.6197C55.0269 61.0208 55.6378 57.1535 54.1148 55.3746C52.5918 53.5957 50.6843 52.7116 47.6432 54.5757C44.6022 56.4397 38.0191 42.0135 37.2774 36.4765C43.7861 36.8093 50.2886 30.9845 48.4783 19.7557C46.9776 10.4466 34.5383 8.8928 35.28 14.4406Z" fill="#FF0000"/>
<path d="M0.318826 16.3246C0.937813 17.1473 1.97374 16.3123 2.28921 16.172C2.52675 16.1311 2.51847 28.0457 2.51847 28.0457C2.18443 39.2134 4.42988 41.4957 4.42988 41.4957C7.39908 45.1075 12.224 42.2639 14.0798 39.9003C14.5437 44.5979 14.5808 46.6626 15.6359 48.8723C17.7253 53.2483 22.6779 51.9904 21.8368 48.8723C18.6174 36.9382 19.5788 24.3007 22.0966 14.4406C23.2461 9.93893 18.7226 6.60015 16.8895 14.4406C15.0564 22.2811 15.0076 23.5697 14.0798 28.0457C13.5787 29.5413 14.0798 32.3779 9.96379 32.3779C6.24937 32.3779 7.08902 29.1255 6.95698 27.4415C6.68481 23.9701 6.79585 16.588 6.38469 15.1006C5.88485 13.2925 3.11453 13.2925 1.8133 13.8202C0.512071 14.3479 -0.55655 15.1611 0.318826 16.3246Z" fill="#FF0000"/>
<path d="M86.52 14C86.9412 17.4525 91.1531 15.884 91.1531 13.8202C94.9915 13.8202 97.0103 21.2435 95.7494 24.472C93.5879 30.0062 87.2009 29.3034 86.9412 25.2043C86.6816 21.1051 85.2748 17.1045 81.5661 17.1045C76.3194 17.1045 75.6447 22.3416 75.5582 25.2043C75.38 31.0974 78.2486 35.856 85.1472 35.856C87.8174 53.6312 95.9923 62.4875 98.6625 63.3973C101.333 64.3072 103.447 63.3973 104.745 61.9993C106.229 60.4004 106.84 56.533 105.317 54.7541C103.794 52.9752 101.887 52.0912 98.8455 53.9552C95.8044 55.8193 89.2212 41.3931 88.4795 35.856C94.9882 36.1889 101.491 30.3641 99.6806 19.1353C98.1798 9.82622 85.8421 8.44403 86.52 14Z" fill="#FF0000"/>
<path d="M103.761 28.0457C103.761 28.0457 103.301 35.2464 103.761 39.9003C104.225 44.5979 104.412 46.1354 105.317 48.8723C106.84 53.4745 112.359 51.9904 111.518 48.8723C108.299 36.9382 109.26 24.3007 111.778 14.4406C112.927 9.93893 109.381 6.50375 106.571 14.4406C103.761 22.3775 104.119 24.9978 103.761 28.0457Z" fill="#FF0000"/>
<path d="M51.6383 17.6051C52.2573 18.4278 53.2932 17.5928 53.6087 17.4525C53.8462 17.4115 53.8379 29.3262 53.8379 29.3262C53.5039 40.4939 55.7493 42.7762 55.7493 42.7762C58.7185 46.388 63.5435 43.5443 65.3992 41.1808C65.8631 45.8783 65.9002 47.9431 66.9553 50.1527C69.0448 54.5288 73.9973 53.2709 73.1562 50.1527C69.9369 38.2186 70.8982 25.5812 73.416 15.7211C74.5655 11.2194 70.0421 7.88061 68.209 15.7211C66.3759 23.5615 66.3271 24.8502 65.3992 29.3262C64.8981 30.8218 65.3992 33.6584 61.2832 33.6584C57.5688 33.6584 58.4085 30.406 58.2764 28.722C58.0042 25.2505 58.1153 17.8685 57.7041 16.3811C57.2043 14.5729 54.434 14.5729 53.1327 15.1006C51.8315 15.6284 50.7629 16.4416 51.6383 17.6051Z" fill="#FF0000"/>
</svg>
