<svg width="135" height="136" viewBox="0 0 135 136" fill="none" xmlns="http://www.w3.org/2000/svg">
<path d="M28.1682 69.4014C29.2957 69.4014 30.2097 68.4873 30.2097 67.3599C30.2097 66.2324 29.2957 65.3184 28.1682 65.3184C27.0407 65.3184 26.1267 66.2324 26.1267 67.3599C26.1267 68.4873 27.0407 69.4014 28.1682 69.4014Z" fill="black"/>
<path d="M107.112 69.4014C108.239 69.4014 109.153 68.4873 109.153 67.3599C109.153 66.2324 108.239 65.3184 107.112 65.3184C105.984 65.3184 105.07 66.2324 105.07 67.3599C105.07 68.4873 105.984 69.4014 107.112 69.4014Z" fill="black"/>
<path d="M67.64 135.002C54.262 135.001 41.1847 131.033 30.0615 123.6C18.9383 116.168 10.2689 105.604 5.14927 93.2439C0.0296805 80.8843 -1.31012 67.2842 1.29928 54.1631C3.90867 41.0421 10.3501 28.9894 19.809 19.529C32.5205 6.96787 49.6861 -0.0528291 67.5567 0.00029935C85.4274 0.0534278 102.551 7.17607 115.187 19.8126C127.824 32.4491 134.947 49.5726 135 67.4433C135.053 85.3139 128.032 102.48 115.471 115.191C109.204 121.491 101.75 126.486 93.5396 129.887C85.3295 133.287 76.5265 135.026 67.64 135.002Z" fill="#F8BE32"/>
<path d="M67.64 122.616C56.7107 122.617 46.0266 119.377 36.939 113.305C27.8514 107.233 20.7684 98.6031 16.5858 88.5058C12.4032 78.4085 11.309 67.2976 13.4414 56.5784C15.5738 45.8591 20.8371 36.013 28.5657 28.2852C38.9288 17.9221 52.9843 12.1001 67.64 12.1001C82.2957 12.1001 96.3511 17.9221 106.714 28.2852C117.077 38.6483 122.899 52.7038 122.899 67.3595C122.899 82.0152 117.077 96.0706 106.714 106.434C101.595 111.58 95.5049 115.661 88.7978 118.438C82.0908 121.216 74.8994 122.636 67.64 122.616Z" fill="#FED947"/>
<path d="M106.714 28.286C101.594 23.1393 95.5048 19.0591 88.7977 16.2814C82.0907 13.5038 74.8993 12.0838 67.6399 12.1037C65.5938 12.1051 63.5493 12.2178 61.5154 12.4413C71.859 13.5936 81.6669 17.6438 89.8098 24.1254C97.9526 30.6071 104.099 39.2567 107.542 49.0783C110.985 58.8999 111.585 69.4942 109.271 79.6414C106.958 89.7886 101.825 99.0761 94.4652 106.435C85.6215 115.328 73.9968 120.921 61.529 122.282C63.5584 122.504 65.5984 122.616 67.6399 122.617C78.5692 122.618 89.2532 119.377 98.3409 113.306C107.429 107.234 114.511 98.6039 118.694 88.5066C122.877 78.4093 123.971 67.2984 121.838 56.5792C119.706 45.8599 114.443 36.0138 106.714 28.286Z" fill="#FED030"/>
<path d="M61.9238 76.2119H48.5996C48.0582 76.2119 47.5389 75.9968 47.156 75.614C46.7732 75.2311 46.5581 74.7118 46.5581 74.1704C46.5581 73.629 46.7732 73.1097 47.156 72.7268C47.5389 72.344 48.0582 72.1289 48.5996 72.1289H61.9238C65.6518 72.1289 69.2271 70.648 71.8632 68.0119C74.4993 65.3758 75.9802 61.8005 75.9802 58.0725C75.9802 54.3445 74.4993 50.7692 71.8632 48.1331C69.2271 45.497 65.6518 44.0161 61.9238 44.0161H52.6254C52.084 44.0161 51.5647 43.801 51.1819 43.4182C50.799 43.0353 50.5839 42.516 50.5839 41.9746C50.5839 41.4332 50.799 40.9139 51.1819 40.531C51.5647 40.1482 52.084 39.9331 52.6254 39.9331H61.9238C64.3059 39.9331 66.6647 40.4023 68.8654 41.3139C71.0662 42.2255 73.0659 43.5616 74.7503 45.246C76.4347 46.9304 77.7708 48.9301 78.6824 51.1309C79.594 53.3316 80.0632 55.6904 80.0632 58.0725C80.0632 60.4546 79.594 62.8134 78.6824 65.0141C77.7708 67.2149 76.4347 69.2146 74.7503 70.899C73.0659 72.5834 71.0662 73.9195 68.8654 74.8311C66.6647 75.7427 64.3059 76.2119 61.9238 76.2119Z" fill="white"/>
<path d="M86.694 44.0161H48.5997C48.0582 44.0161 47.539 43.801 47.1561 43.4182C46.7732 43.0353 46.5582 42.516 46.5582 41.9746C46.5582 41.4332 46.7732 40.9139 47.1561 40.531C47.539 40.1482 48.0582 39.9331 48.5997 39.9331H86.694C87.2355 39.9331 87.7547 40.1482 88.1376 40.531C88.5204 40.9139 88.7355 41.4332 88.7355 41.9746C88.7355 42.516 88.5204 43.0353 88.1376 43.4182C87.7547 43.801 87.2355 44.0161 86.694 44.0161ZM86.694 60.114H48.5997C48.0582 60.114 47.539 59.8989 47.1561 59.5161C46.7732 59.1332 46.5582 58.6139 46.5582 58.0725C46.5582 57.5311 46.7732 57.0118 47.1561 56.6289C47.539 56.2461 48.0582 56.031 48.5997 56.031H86.694C87.2355 56.031 87.7547 56.2461 88.1376 56.6289C88.5204 57.0118 88.7355 57.5311 88.7355 58.0725C88.7355 58.6139 88.5204 59.1332 88.1376 59.5161C87.7547 59.8989 87.2355 60.114 86.694 60.114ZM77.393 104.074C76.8627 104.075 76.353 103.869 75.9721 103.5L47.1815 75.6376C46.9871 75.4516 46.8314 75.229 46.7234 74.9826C46.6153 74.7362 46.5571 74.4709 46.5519 74.2019C46.5467 73.9329 46.5948 73.6656 46.6933 73.4152C46.7918 73.1649 46.9388 72.9365 47.1258 72.7431C47.3129 72.5498 47.5363 72.3953 47.7833 72.2886C48.0303 72.1819 48.2959 72.1251 48.5649 72.1214C48.8339 72.1176 49.101 72.1672 49.3508 72.267C49.6006 72.3669 49.8282 72.5151 50.0205 72.7033L78.8138 100.568C79.1062 100.851 79.3073 101.215 79.3915 101.613C79.4758 102.011 79.4392 102.425 79.2865 102.802C79.1338 103.179 78.872 103.502 78.5346 103.729C78.1973 103.956 77.7997 104.077 77.393 104.077V104.074Z" fill="white"/>
<path d="M28.1682 69.4014C29.2957 69.4014 30.2097 68.4873 30.2097 67.3599C30.2097 66.2324 29.2957 65.3184 28.1682 65.3184C27.0407 65.3184 26.1267 66.2324 26.1267 67.3599C26.1267 68.4873 27.0407 69.4014 28.1682 69.4014Z" fill="white"/>
<path d="M107.112 69.4014C108.239 69.4014 109.153 68.4873 109.153 67.3599C109.153 66.2324 108.239 65.3184 107.112 65.3184C105.984 65.3184 105.07 66.2324 105.07 67.3599C105.07 68.4873 105.984 69.4014 107.112 69.4014Z" fill="white"/>
</svg>
