<svg width="135" height="135" viewBox="0 0 135 135" fill="none" xmlns="http://www.w3.org/2000/svg">
<path d="M53.4702 2.90966L85.9783 36.951C91.5628 43.4775 94.9615 47.6884 94.9194 57.2764L135 99.2755L130.264 104.238L91.6947 63.8194C88.528 60.5009 88.5649 60.3352 88.9103 58.716C90.0388 53.5904 87.0646 46.807 83.6342 43.2122C72.2014 31.2314 60.7555 19.2644 49.3227 7.28365C45.721 3.50649 39.9729 9.51623 43.5694 13.2851L55.5902 25.8821L55.6535 25.9456C55.9962 26.3076 55.9962 26.8989 55.6535 27.2581L52.7452 30.3058C52.6631 30.3918 52.5657 30.4601 52.4585 30.5067C52.3513 30.5533 52.2363 30.5772 52.1203 30.5772C52.0042 30.5772 51.8893 30.5533 51.782 30.5067C51.6748 30.4601 51.5774 30.3918 51.4954 30.3058L32.627 10.5331C29.0833 6.81945 23.2694 12.7601 26.8869 16.5511L45.7526 36.3211C46.098 36.683 46.098 37.2743 45.7526 37.6335L42.6756 40.8581C42.5094 41.0319 42.2841 41.1295 42.0493 41.1295C41.8145 41.1295 41.5893 41.0319 41.4231 40.8581L16.1898 14.4152C12.6302 10.685 6.84001 16.6257 10.447 20.4056L35.6935 46.8623C35.8594 47.0364 35.9526 47.2725 35.9526 47.5185C35.9526 47.7646 35.8594 48.0006 35.6935 48.1748L32.6903 51.3247C32.5235 51.4973 32.2985 51.5941 32.0641 51.5941C31.8297 51.5941 31.6047 51.4973 31.4379 51.3247L12.6329 31.6183C9.02057 27.8301 3.33845 33.9089 6.90593 37.6473C11.4674 42.4275 16.5563 47.8156 21.6504 53.1732C26.1276 57.9202 30.6047 62.6368 36.3422 68.6521C37.2756 69.7601 45.481 77.5465 39.4377 78.7042C35.1768 79.9338 28.7511 78.6987 25.268 80.3897C22.9582 81.5723 21.8561 84.026 23.1692 86.3912C23.7097 87.3417 24.6299 88.154 25.9535 88.668C28.1763 89.5384 31.8703 89.1819 34.3198 89.1819C40.5952 89.1819 52.0833 89.1709 60.2387 88.0076C64.4205 87.4191 66.841 89.3228 69.3222 91.9229L105.667 130.012L100.91 135L62.1187 94.3489C54.2797 95.573 43.7777 95.4155 36.5637 95.3132C32.5295 95.2469 26.9212 95.783 23.2694 94.1831C15.027 90.5469 14.5102 79.5774 22.3992 75.1702C25.6819 73.3549 28.8618 73.5041 32.4319 73.3936C22.5047 62.9933 12.6645 52.4216 2.71883 42.0048C-2.34366 36.6968 0.071569 27.6532 6.59743 25.1139C-1.87696 16.2333 8.65407 3.99556 17.2445 7.80035C18.6077 8.40547 19.5964 9.24269 20.6168 10.3175C23.1718 3.43741 31.604 0.718521 36.7746 6.13696L37.3995 6.79181C40.3579 0.163138 48.2786 -2.52812 53.4702 2.90966ZM116.772 98.5544C118.755 98.5544 120.551 99.3971 121.845 100.757C122.513 101.454 123.042 102.283 123.402 103.195C123.763 104.107 123.948 105.085 123.947 106.073C123.947 108.151 123.143 110.032 121.845 111.389C121.18 112.088 120.389 112.643 119.519 113.021C118.648 113.399 117.715 113.593 116.772 113.591C114.792 113.591 112.994 112.748 111.699 111.389C111.032 110.691 110.503 109.863 110.143 108.95C109.782 108.038 109.597 107.06 109.598 106.073C109.598 103.998 110.405 102.113 111.699 100.757C112.365 100.057 113.156 99.5028 114.026 99.1249C114.897 98.747 115.83 98.5531 116.772 98.5544ZM119.409 103.31C119.063 102.947 118.652 102.659 118.2 102.462C117.747 102.266 117.262 102.165 116.772 102.166C115.744 102.166 114.811 102.605 114.136 103.31C113.437 104.043 113.044 105.036 113.044 106.073C113.044 107.109 113.437 108.103 114.136 108.836C114.811 109.54 115.744 109.98 116.772 109.98C117.803 109.98 118.737 109.54 119.409 108.836C120.084 108.131 120.501 107.15 120.501 106.073C120.501 104.995 120.084 104.017 119.409 103.31ZM96.8099 97.1175C98.674 97.1175 100.185 98.7008 100.185 100.654C100.185 102.608 98.674 104.191 96.8099 104.191C94.9457 104.191 93.4349 102.608 93.4349 100.654C93.4349 98.7008 94.9457 97.1175 96.8099 97.1175ZM81.9494 76.7121C83.9322 76.7121 85.7278 77.5548 87.0224 78.9142C87.6896 79.6116 88.2188 80.4402 88.5794 81.3526C88.9401 82.2649 89.1251 83.2429 89.1239 84.2304C89.1239 86.3083 88.3197 88.19 87.0224 89.5466C86.3571 90.2461 85.5664 90.8007 84.6958 91.1787C83.8251 91.5566 82.8918 91.7504 81.9494 91.7488C79.9692 91.7488 78.171 90.9061 76.8763 89.5466C76.2089 88.8495 75.6796 88.0209 75.319 87.1085C74.9583 86.1961 74.7734 85.218 74.7749 84.2304C74.7749 82.1554 75.5791 80.2709 76.8763 78.9142C77.5418 78.215 78.3325 77.6605 79.2031 77.2826C80.0737 76.9047 81.007 76.7108 81.9494 76.7121ZM84.5861 81.4673C84.2401 81.1042 83.829 80.8162 83.3766 80.6199C82.9241 80.4236 82.4391 80.3229 81.9494 80.3234C80.9211 80.3234 79.9877 80.7628 79.3127 81.4673C78.6403 82.1719 78.2211 83.1528 78.2211 84.2304C78.2211 85.3081 78.6403 86.289 79.3127 86.9935C79.9877 87.6981 80.9211 88.1375 81.9494 88.1375C82.9803 88.1375 83.9137 87.6981 84.5861 86.9935C85.2584 86.289 85.6777 85.3081 85.6777 84.2304C85.6777 83.1528 85.2584 82.1719 84.5861 81.4673ZM75.1018 56.8702C76.7234 56.8702 78.0391 58.249 78.0391 59.9483C78.0391 61.6476 76.7234 63.0264 75.1018 63.0264C73.4803 63.0264 72.1645 61.6476 72.1645 59.9483C72.1645 58.249 73.4803 56.8702 75.1018 56.8702ZM61.8023 70.7327C63.6664 70.7327 65.1773 72.316 65.1773 74.2695C65.1773 76.2202 63.6664 77.8062 61.8023 77.8062C59.9381 77.8062 58.4273 76.2202 58.4273 74.2695C58.4273 72.316 59.9381 70.7327 61.8023 70.7327ZM45.3545 49.7221C47.2186 49.7221 48.7294 51.3081 48.7294 53.2589C48.7294 55.2124 47.2186 56.7956 45.3545 56.7956C43.4903 56.7956 41.9795 55.2124 41.9795 53.2589C41.9795 51.3081 43.4903 49.7221 45.3545 49.7221ZM63.9354 36.0061C65.9155 36.0061 67.7111 36.8516 69.0084 38.2083C70.303 39.5677 71.1099 41.4494 71.1099 43.5245C71.1099 45.6023 70.303 47.484 69.0084 48.8434C67.7111 50.2001 65.9155 51.0456 63.9354 51.0456C61.9526 51.0456 60.157 50.2001 58.8597 48.8434C57.5651 47.484 56.7582 45.6023 56.7582 43.5245C56.7582 41.4494 57.5651 39.5677 58.8597 38.2083C60.157 36.8516 61.9526 36.0061 63.9354 36.0061ZM66.5694 40.7614C66.2238 40.3985 65.8132 40.1106 65.3612 39.9143C64.9092 39.718 64.4246 39.6171 63.9354 39.6174C62.9044 39.6174 61.971 40.0568 61.2986 40.7614C60.6236 41.4687 60.2044 42.4468 60.2044 43.5245C60.2044 44.6048 60.6236 45.583 61.2986 46.2876C61.971 46.9949 62.9044 47.4342 63.9354 47.4342C64.9637 47.4342 65.8971 46.9949 66.5694 46.2876C67.2444 45.583 67.6637 44.6048 67.6637 43.5245C67.6637 42.4468 67.2444 41.4687 66.5694 40.7614Z" fill="#FF9800"/>
</svg>
